<svg width="429" height="171" viewBox="0 0 429 171" fill="none" xmlns="http://www.w3.org/2000/svg">
<g clip-path="url(#clip0_2797_11418)">
<path fill-rule="evenodd" clip-rule="evenodd" d="M28.1005 156.27C22.8005 156.27 20.1005 153.66 20.1005 149.37C20.1005 141.37 29.0205 138.68 45.2905 136.95C45.2905 147.61 38.0805 156.27 28.0505 156.27H28.1005ZM35.1005 96.32C23.4705 96.32 10.1005 101.79 2.84047 107.58L9.47047 121.58C15.2905 116.25 24.7005 111.69 33.1905 111.69C41.2605 111.69 45.7205 114.39 45.7205 119.83C45.7205 123.48 42.7705 125.33 37.1905 126.06C16.3305 128.76 -0.0195312 134.52 -0.0195312 150.59C-0.0195312 163.33 9.05047 171.04 23.2205 171.04C33.3405 171.04 42.3405 165.42 46.6205 158.04V169.04H65.4805V122.95C65.4805 103.95 52.2905 96.28 35.1105 96.28L35.1005 96.32Z" fill="#101820"/>
<path fill-rule="evenodd" clip-rule="evenodd" d="M224.391 98.39V168.95H244.571V134.95C244.571 118.8 254.351 114.05 261.161 114.05C264.226 114.026 267.23 114.914 269.791 116.6L273.481 97.95C270.621 96.8054 267.56 96.2509 264.481 96.32C254.111 96.32 247.591 100.91 243.291 110.25V98.39H224.391Z" fill="#101820"/>
<path fill-rule="evenodd" clip-rule="evenodd" d="M367 96.3201C356.33 96.3201 348.35 102.62 344.2 108.7C340.35 100.85 332.2 96.3201 322.4 96.3201C311.74 96.3201 304.35 102.24 300.94 109.06V98.3901H281.48V168.95H301.68V132.62C301.68 119.62 308.51 113.33 314.88 113.33C320.65 113.33 325.95 117.06 325.95 126.69V168.95H346.11V132.62C346.11 119.43 352.77 113.33 359.44 113.33C364.78 113.33 370.44 117.21 370.44 126.55V168.95H390.6V120.17C390.6 104.32 379.93 96.3201 367.04 96.3201" fill="#101820"/>
<path fill-rule="evenodd" clip-rule="evenodd" d="M175.281 98.3901H157.001V91.2201C157.001 81.8801 162.331 79.2201 166.921 79.2201C170.055 79.261 173.136 80.0313 175.921 81.4701L182.141 67.2401C182.141 67.2401 175.831 63.1201 164.361 63.1201C151.471 63.1201 136.801 70.3901 136.801 93.2001V98.3901H106.251V91.2201C106.251 81.8801 111.571 79.2201 116.171 79.2201C119.31 79.2199 122.401 79.9926 125.171 81.4701L131.391 67.2401C127.681 65.0701 121.711 63.1201 113.621 63.1201C100.731 63.1201 86.0609 70.3901 86.0609 93.2001V98.3901H74.3809V113.95H86.0909V168.95H106.251V113.95H136.841V168.95H157.001V113.95H175.281V98.3901Z" fill="#101820"/>
<path d="M207.46 98.3899H187.32V168.92H207.46V98.3899Z" fill="#101820"/>
<path fill-rule="evenodd" clip-rule="evenodd" d="M188.061 86.4H207.791C219.301 50.21 258.351 18.4 304.791 18.4C361.271 18.4 410.081 61.4 410.081 128.34C410.252 142.08 408.365 155.769 404.481 168.95H423.631L423.821 168.29C427.047 155.241 428.64 141.842 428.561 128.4C428.561 53.75 374.161 0.0200195 304.831 0.0200195C250.371 0.0200195 201.831 37.82 188.071 86.42L188.061 86.4Z" fill="black"/>
</g>
<defs>
<clipPath id="clip0_2797_11418">
<rect width="428.55" height="171" fill="white"/>
</clipPath>
</defs>
</svg>
