<svg className="fill-current" width="1830" height="354" viewBox="0 0 1830 354" fill="none" xmlns="http://www.w3.org/2000/svg">
<path fill-rule="evenodd" clip-rule="evenodd" d="M1054.87 343.2H1034.4L913.2 0H942.4L945.914 9.95198L945.931 10H937.2L1054.87 343.2ZM1063.6 343.2H1054.87L1058.4 353.2H1087.6L966.4 10H945.931L946.831 12.5464L1063.6 343.2Z" fill="#232323"/>
<path d="M1095.5 266H1118.54V177.008L1187.09 64.4001H1159.73L1107.31 153.968H1105.58L1053.17 64.4001H1026.96L1095.5 177.008V266Z" fill="#232323"/>
<path d="M1298.16 269.744C1356.91 269.744 1401.26 224.528 1401.26 165.2C1401.26 106.448 1357.2 60.6561 1298.45 60.6561C1239.98 60.6561 1195.63 105.872 1195.63 165.2C1195.63 225.104 1239.7 269.744 1298.16 269.744ZM1298.45 247.856C1253.81 247.856 1219.82 213.008 1219.82 165.2C1219.82 117.968 1253.81 82.5441 1298.45 82.5441C1343.09 82.5441 1377.07 117.968 1377.07 165.2C1377.07 213.008 1343.09 247.856 1298.45 247.856Z" fill="#232323"/>
<path d="M1532.72 269.744C1578.51 269.744 1623.44 244.112 1632.66 171.536H1543.38V191.984H1605.01C1594.93 232.304 1564.11 247.856 1533.01 247.856C1488.37 247.856 1454.39 213.008 1454.39 165.2C1454.39 117.968 1487.79 82.5441 1532.43 82.5441C1563.54 82.5441 1589.17 99.8241 1599.83 126.032H1625.75C1612.5 88.0161 1577.36 60.6561 1532.43 60.6561C1473.97 60.6561 1430.19 105.872 1430.19 165.2C1430.19 225.104 1474.26 269.744 1532.72 269.744Z" fill="#232323"/>
<path d="M1805.23 266H1829.71L1755.4 64.4001H1722.28L1647.12 266H1671.6L1689.16 218.192H1787.66L1805.23 266ZM1696.94 196.88L1737.55 85.7121H1739.28L1779.88 196.88H1696.94Z" fill="#232323"/>
<path d="M0 266H23.328V184.496H57.312L107.712 266H135.936L81.792 182.48C113.184 176.72 129.6 153.104 129.6 123.152C129.6 88.0161 105.12 64.4001 63.936 64.4001H0V266ZM23.328 163.76V85.1361H62.496C91.008 85.1361 105.408 102.128 105.408 123.44C105.408 149.936 87.552 163.76 63.936 163.76H23.328Z" fill="#232323"/>
<path d="M264.472 269.744C323.224 269.744 367.576 224.528 367.576 165.2C367.576 106.448 323.512 60.6561 264.76 60.6561C206.296 60.6561 161.944 105.872 161.944 165.2C161.944 225.104 206.008 269.744 264.472 269.744ZM264.76 247.856C220.12 247.856 186.136 213.008 186.136 165.2C186.136 117.968 220.12 82.5441 264.76 82.5441C309.4 82.5441 343.384 117.968 343.384 165.2C343.384 213.008 309.4 247.856 264.76 247.856Z" fill="#232323"/>
<path d="M483.194 269.744C531.002 269.744 558.362 238.928 558.362 193.424V64.4001H535.322V193.136C535.322 226.832 517.178 248.144 483.194 248.144C449.21 248.144 431.354 226.832 431.354 193.424V64.4001H408.026V193.712C408.026 239.504 434.81 269.744 483.194 269.744Z" fill="#232323"/>
<path d="M669.285 269.744C713.349 269.744 739.269 244.4 739.269 212.72C739.269 131.216 627.525 169.52 627.525 114.512C627.525 97.8081 639.909 81.9681 668.421 81.9681C695.781 81.9681 711.045 96.0801 711.045 119.12H734.949C734.949 77.3601 699.237 60.6561 668.709 60.6561C628.101 60.6561 604.197 85.7121 604.197 114.512C604.197 195.152 715.653 151.088 715.653 214.16C715.653 235.184 696.645 248.144 670.149 248.144C639.621 248.144 620.613 229.424 620.613 206.096H597.285C597.285 243.536 629.253 269.744 669.285 269.744Z" fill="#232323"/>
<path d="M782.438 266H900.518V244.976H805.766V173.84H884.677V152.816H805.766V85.7121H897.349V64.4001H782.438V266Z" fill="#232323"/>
</svg>
