<svg version="1" xmlns="http://www.w3.org/2000/svg" width="2632" height="2632" viewBox="0 0 1974.000000 1974.000000"><path d="M965.7.6c-.1.1-8.1.5-17.7.8-9.6.3-19.1.8-21 1-1.9.3-8.1.7-13.7 1.1-5.7.3-11.1.8-12 .9-1 .2-5.8.7-10.6 1.1-4.8.3-9.6.8-10.6 1-1 .2-4.2.6-7.2.9-3 .3-7.1.8-9.1 1.1-2.1.3-5.3.7-7 .9-7.7 1-13.4 1.8-14.8 2.1-.8.1-3.5.6-6 1-10 1.5-43.6 7.7-49.4 9-3.3.8-7.2 1.6-8.6 1.8-10.6 2-40.3 9.6-65.5 16.8-24.6 7.1-71.5 23.3-88 30.4-1.6.7-8.2 3.4-14.5 6-33.2 13.6-80.9 37.3-112.5 55.7-22.4 13.1-67.9 42.1-70.5 44.8-.3.3-6.7 4.9-14.2 10.3-18.3 13-57.7 44.1-66.8 52.8-.8.8-3.3 2.9-5.5 4.8-11.7 9.9-25.5 23-47.5 45-24.1 24.1-33.5 34.1-50.6 54-1.6 1.9-3.4 3.9-3.9 4.5-.6.6-3 3.6-5.5 6.6-2.5 3-4.7 5.7-5 6-1.6 1.4-18.1 22.6-29.8 38.2-11.6 15.5-42 59.8-45.4 66.4-.7 1.2-5.4 9.2-10.4 17.6-18.8 31.5-37.9 67.8-49.9 94.8-2.1 4.7-4.9 11-6.2 14-1.4 3-4.5 10.4-7 16.5-2.5 6-5.1 12.3-5.8 14-5.9 13.1-22.3 61-30 87.5-5 17.1-12.5 46-14.5 55.5-.4 2.2-2 9.4-3.4 16-1.5 6.6-2.9 13.3-3.2 15-4.2 22.8-5.3 29-6 34-.2 2.2-1.1 8-1.9 13-.8 4.9-1.7 11.2-2 14-.3 2.7-1 8.4-1.5 12.5-1.6 12.6-2.6 22.9-3.5 34.5-.4 4.4-.8 9.8-1 12-3.1 30.5-2.6 116 1 153 .3 3.3.8 8.5 1 11.5.5 5 .9 9.1 2 19s1.7 14.5 2 16c.2.9.6 4.1 1 7.1.3 3 1.8 12.4 3.2 20.9 1.4 8.5 2.6 16.2 2.7 17 .2 1.6.6 3.5 4.2 21.5 6.1 31 15 66.1 24.8 97.5 9.8 31.5 25.6 74.1 36.1 97.5 1.4 3.3 3.4 7.8 4.4 10 5.7 12.8 8.7 19.2 18.8 39.5 11.1 22.4 17.3 34 24 45.5 2 3.3 4.5 7.6 5.5 9.5 1.1 1.9 3.6 6.2 5.7 9.5 2 3.3 4.1 6.8 4.6 7.7 3.1 5.4 23.8 37.8 25.8 40.3.4.5 6.4 9.1 13.4 19s12.9 18.2 13.3 18.5c.3.3 2.5 3.2 5 6.5 2.4 3.3 5 6.6 5.6 7.5.7.8 5.2 6.4 10.1 12.5 4.8 6 9.2 11.5 9.8 12.1.5.6 2.6 3 4.5 5.4 15.1 18.9 62.3 68.6 84 88.5 18.7 17.1 40.5 36.1 49 42.5 1.8 1.4 3.8 3 4.4 3.6 1.6 1.5 18 14.1 33.1 25.4 12.1 9 17.8 13 35.9 25.3 12.4 8.5 41.4 26.7 42.5 26.7.5 0 1.1.4 1.3.8.3.7 4.2 3.1 16.8 10 2.5 1.4 5 2.8 5.5 3.2.6.4 4 2.4 7.8 4.4 3.7 2 9.7 5.3 13.5 7.3 7.3 4 44 22.3 44.6 22.3.2 0 4.2 1.8 8.8 3.9 35.4 16.7 86.9 35.8 130.8 48.6 17.6 5.1 42.6 11.8 48 12.9 1.4.2 6.6 1.4 11.5 2.6 5 1.2 12.4 2.8 16.5 3.6 11.5 2.2 12 2.3 13.8 2.8.9.3 4 .8 6.7 1.2 2.8.3 5.3.8 5.6 1 .4.2 3.1.6 6 1 3 .3 5.7.8 6 1 .4.2 2.4.6 4.5.9 2.2.4 6.8 1.1 10.4 1.6 3.6.6 7.9 1.2 9.5 1.4 1.7.1 5 .6 7.5.9 10.3 1.5 15.8 2.1 25.5 3.1 3.3.3 7.1.8 8.5 1 1.4.2 6.5.7 11.3 1 4.9.3 10.3.7 12 1 9.4 1.3 34.9 2 73.7 2 38.2 0 54.6-.4 73.5-2 2.8-.2 8.4-.7 12.5-1 4.1-.3 8.6-.8 10-1 1.4-.2 6.1-.7 10.4-1 4.3-.4 8.8-.8 9.8-1 1.1-.2 4.6-.7 7.9-1 3.3-.4 7-.8 8.1-1 1.1-.3 4.6-.7 7.7-1.1 5.4-.6 6.8-.8 12.1-1.9 1.4-.2 4.5-.7 7-1 2.5-.3 5.2-.8 6-1 .8-.2 3.1-.6 5-.9 7.5-1.1 41-7.9 51-10.2 5.8-1.4 11.5-2.8 12.8-3 3.5-.7 31.5-8.2 43.2-11.5 23.6-6.9 56.7-18.1 83-28.3 13.9-5.5 18.1-7.2 24.4-10.2 1.6-.8 3.3-1.4 3.7-1.4.4 0 4-1.5 8.1-3.4 4-1.8 11.1-5 15.8-7.1 45.9-20.5 109.4-57 154.5-88.8 17.6-12.4 55.3-41 57.5-43.6.3-.3 2.8-2.4 5.5-4.6 5.7-4.5 9-7.3 15.4-13 2.5-2.2 5.1-4.5 5.7-5 14.6-12.6 28.7-25.9 47.3-44.6 33.1-33 51.4-53.9 85.4-96.9 16.6-21 52.7-74.1 63.9-94 1.1-1.9 3.5-6 5.3-9 16-26.5 40.8-75.7 54.5-108 24-56.4 42.3-112.6 55.5-170.5 3-13.3 9.4-46.1 10.9-55.5.3-1.9 1.2-7.8 2-13s1.7-11.3 2-13.5c3.2-24.7 3.4-26.7 4.2-35 .3-3.9 1-10.2 1.4-14 1-7.8.7-176.8-.2-180-.3-1.1-.9-5.8-1.3-10.4-.4-4.7-.8-9.2-1-10-.2-.9-.6-4.5-1-8.1-.4-3.6-.9-7.2-1-8.1-.2-.9-.6-4-1-7-.7-5.8-.8-6.7-2.5-17.4-.7-3.9-1.4-8.4-1.7-10-.8-5.4-2.6-15.2-3.8-21.5-.3-1.4-1.2-6-2-10.3-4.2-22.2-14.2-62.2-21.6-87.2-9.6-32.1-27.5-81.2-38.9-107-1-2.2-3.9-9-6.6-15-6.4-14.7-26.5-54.8-35.4-71-31.4-56.6-67.7-109.6-108-157.5-5.7-6.9-10.7-12.7-11-13-.3-.3-2-2.3-3.9-4.5-14.9-17.4-58.9-62.3-77-78.6-5.2-4.6-10.2-9.1-11.1-9.9-4.1-3.8-12.9-11.3-22.8-19.5-1.4-1.1-3-2.5-3.6-3-.6-.6-3.3-2.8-6.1-5-2.7-2.2-5.2-4.2-5.5-4.5-.3-.3-2.3-1.8-4.5-3.5-2.2-1.6-4.2-3.2-4.5-3.5-.7-1-27.3-20.8-34.8-26.1-76.7-53.5-146.3-90.4-226.7-120.4-41.2-15.3-94-31-131.9-39.1-21.5-4.5-34.1-6.9-53.1-10-1.6-.2-5.5-.9-8.5-1.4-3-.5-7.3-1.1-9.5-1.4-2.2-.3-5.6-.8-7.5-1.1-7.8-1.2-35.7-4.3-44.6-5-4-.3-9.1-.7-11.5-1-19.5-1.8-44.3-2.7-75.7-2.9-15-.1-27.4-.1-27.5 0zm68.9 16.8c8.9.4 17.7.8 19.5 1.1 1.9.2 7.7.6 12.9 1 5.2.3 11.5.8 14 1.1 2.5.2 6.8.7 9.5.9 2.8.3 6.6.8 8.5 1 1.9.2 6 .7 9 1 3 .4 6.6.8 8 1 1.4.2 4.8.6 7.5 1 5.2.6 7.3.9 16.5 2.5 3 .5 7.3 1.2 9.5 1.5 2.3.3 5.2.7 6.5 1 1.4.3 5.2 1 8.5 1.5 3.3.6 9.4 1.8 13.5 2.6 4.1.9 8.6 1.8 10 2 5.8 1.1 26.5 5.8 39.5 9 22.6 5.7 66.1 18.4 69.7 20.4 1 .6 2.2 1 2.8 1 4.2 0 68.5 25.3 93 36.6 14.6 6.7 50.1 24.4 58.5 29.2 3.9 2.1 9.7 5.4 13 7.2 13.4 7.4 21.9 12.4 37 21.8 13 8.1 37.6 24.4 47.7 31.6 3.5 2.5 7.8 5.5 9.6 6.8 1.8 1.3 3.9 2.7 4.5 3.3.7.5 7.7 5.9 15.6 11.9 7.9 6 15.1 11.4 16 12.2.9.7 3.6 2.9 6.1 4.9 37.2 30.1 77.5 68.3 109.2 103.6 3.7 4 8.1 9 9.9 10.9 22.6 25.2 56.5 69.5 78.4 102.5 11.4 17.3 31.7 50 33.8 54.5.4.8 1.5 2.8 2.5 4.5 1.8 2.9 6.7 11.7 12 21.5 3.6 6.6 22.2 43.7 22.2 44.3 0 .2 2.3 5.4 5.1 11.3 5 10.9 5.5 11.9 8.3 18.4 13.6 31.8 30.1 77.1 37.6 104 1.7 5.8 3.7 12.5 4.5 15 5.6 17.4 18.8 75.7 22 97.5.4 2.2.8 4.7 1 5.5.5 1.8 1 4.6 2.5 15.5.6 4.4 1.3 9.1 1.5 10.5.2 1.4.7 5.2 1.1 8.5.3 3.3.8 6.2.9 6.5.2.3.6 3.9.9 8 .4 4.1 1.1 10.9 1.6 15 1.4 11.5 2.4 25.1 3.6 49 1.1 20.4 1.1 77.8 0 95.5-.4 7.7-.9 16.9-1.1 20.5-.5 8.1-1.5 19.7-2 23-.2 1.4-.7 5.9-1 10-.4 4.1-.8 8.6-1 10-.2 1.4-.6 4.7-1 7.5-.3 2.7-.8 6.8-1 9-2.1 16.6-5.8 38.8-9.9 59.7-2 9.7-3.7 18.8-4 20.2-2.3 12.9-13.4 54.7-21.1 79.7-11.8 38.1-31.2 89.2-43.2 113.4-1.9 3.8-3.4 7.1-3.3 7.3.2.4-19.6 40.1-26.1 52.2-24.8 46.4-60.5 100.6-92.7 140.9-2.9 3.6-5.8 7.3-6.5 8.1-1.1 1.4-7.6 9.4-12.2 14.9-1.1 1.3-2.9 3.4-4 4.7-1.1 1.2-3.9 4.4-6.1 7.1-26.4 30.8-67.5 71.7-100.9 100.3-10.6 9.1-31.3 26-38.6 31.5-48.5 36.7-80.3 57.5-129.9 85-14.1 7.8-54.5 27.7-71 34.9-41.3 18.2-84.9 34-127.5 46.1-26.6 7.6-69.2 17.4-93 21.4-23.2 3.9-39.3 6.4-50 7.7-3.3.3-6.7.8-7.5.9-.8.2-5.1.6-9.5 1s-9.1.8-10.5 1c-1.4.2-6.1.7-10.5 1.1-4.4.3-9.8.8-12 1-32.9 2.7-110.2 2.7-143.5-.1-2.5-.2-8.3-.6-13-1-11.1-.9-16.5-1.4-22-2.1-8.3-1-10.5-1.3-16.5-2-3.3-.3-6.9-.8-7.9-1-1.1-.2-5.6-.8-10-1.4-10.5-1.4-9.4-1.2-36.1-6-11.7-2.1-17.9-3.4-34.5-7-77.4-17.2-147.2-41.9-218-77.2-36.1-18-54.6-28.2-81-44.6-18-11.2-55.4-36.3-57-38.2-.3-.3-4.3-3.3-9-6.7-4.7-3.4-12.1-9-16.6-12.5-4.5-3.4-9.6-7.4-11.4-8.8-1.8-1.4-3.8-3-4.4-3.5-.6-.6-3.6-3-6.6-5.5-3-2.5-5.7-4.7-6-5-.3-.3-3-2.5-6-5s-6-4.9-6.6-5.5c-.6-.5-4.4-3.9-8.4-7.5-15.7-13.9-20.2-18.2-42.5-40.5-23.4-23.3-29.9-30.1-41.5-43.4-3.6-4.1-7-7.9-7.5-8.5-2.9-3.1-21.3-25.6-29.7-36.2-24.3-30.5-57.7-79.8-76.5-112.8-2-3.3-4.4-7.6-5.4-9.4-9.7-16.9-31-58.9-39.2-77.2-15.5-34.8-29.4-70.9-39.7-103.5-5.8-18.2-15.6-52.7-17.5-61.5-.2-.8-1.9-8.3-3.8-16.5-3.3-14.1-9.4-44-10.1-49.5-.2-1.4-.8-5.2-1.5-8.5-.6-3.3-1.3-7.6-1.5-9.5-.3-1.9-1.1-8.5-2-14.5-2.6-18.9-3.2-23.6-4.1-32.5-.3-3-.8-7.3-1-9.5-.2-2.2-.7-8.1-1-13-.4-5-.8-10.6-1-12.5-2.6-25.2-2.6-109.6 0-136 .1-1.9.6-8.2 1-14 .4-5.8.8-11.2 1-12 .2-.8.6-4.7.9-8.5.4-3.9.9-8.4 1.1-10 .2-1.7.7-5.3 1-8 .7-5.8 4.3-31.7 5-35.8.3-1.5.9-5.3 1.5-8.5.5-3.1 1.2-7.1 1.5-8.7.5-3.2 9.3-46 9.9-48.5 10.3-41.3 20.1-74.6 29.7-101 7.5-20.8 16.8-45 18.9-49.5.5-1.1 3.4-7.6 6.3-14.5 19-44.1 48.9-100.1 71.9-134.8 2.6-4.1 4.8-7.8 4.8-8.3 0-.5.4-.9.8-.9.5 0 1.3-1 1.9-2.3 2.1-4.5 40.8-58.8 43.3-60.7.3-.3 2.5-3 4.7-6.1 2.3-3.1 4.7-6.2 5.5-7 .7-.8 5.2-6.1 9.9-11.9 4.8-5.8 9.6-11.6 10.9-13 1.2-1.4 3.3-3.9 4.8-5.5 14.7-16.9 26.6-29.6 45.8-48.9 18.3-18.3 33.2-32.3 47.4-44.5 4.7-4 11-9.5 14-12.1 3-2.6 8-6.7 11-9.1 3-2.3 6.1-4.8 7-5.5.8-.7 3.5-2.9 6-4.9 2.5-2 5.2-4.2 6-4.8 16.6-13.5 62.9-45.4 85.7-59.3 7.1-4.2 14.4-8.7 16.3-9.9 1.9-1.3 5.6-3.5 8.3-4.9 6.4-3.5 12.9-7.1 21.2-11.9 8.1-4.5 50.9-25.9 60.5-30.2 3.6-1.6 9.4-4.2 13-5.7 9.1-4.1 11.4-5.1 12.5-5.4.6-.2 8.9-3.5 18.5-7.4 21.4-8.7 47.6-18 71.5-25.4 20.9-6.4 23-7 51-14.1 18.5-4.7 25.4-6.3 34.3-8 1.3-.2 3.1-.6 4-.9.9-.3 3.3-.8 5.2-1.1 1.9-.3 6.7-1.2 10.5-2 8.6-1.8 48.9-8.2 56.5-9 3-.3 6.6-.8 8-1 1.4-.2 5.2-.6 8.5-1 3.3-.3 7.4-.8 9-1 1.7-.3 5.9-.7 9.5-1 11.1-.8 22.3-1.7 26.5-2 2.2-.2 12.1-.6 22-1s18.1-.8 18.2-.9c.5-.4 53.7.2 67.9.8z"/><path d="M978.4 60.5c-7.1 9.2-15.6 20.2-18.9 24.5-3.3 4.3-9.9 12.9-14.7 19.2-26.3 34-31.5 40.7-33.3 43.2-1.1 1.5-2.8 3.7-3.7 4.9-2.2 2.7-1.9 2.4-9.9 12.7-3.6 4.7-8.8 11.4-11.4 15-2.7 3.6-5.2 6.7-5.5 7-.3.3-1.7 2.1-3 4s-2.7 3.7-3 4c-.3.3-3.7 4.5-7.5 9.5-3.8 4.9-9 11.7-11.5 15-8.2 10.6-15.3 19.9-18.4 24-1.7 2.2-4.2 5.4-5.6 7.1-1.4 1.7-3.4 4.4-4.5 5.9-1.1 1.6-3.1 4.1-4.3 5.7l-2.4 2.8H615.9c-112.7 0-204.9.2-204.9.4 0 .3 2.7 4.2 6.1 8.8 3.3 4.6 6.8 9.4 7.7 10.8 2.4 3.5 17.5 24.7 21.1 29.5 1.6 2.2 9.9 13.9 18.6 26 8.6 12.1 16.3 22.9 17.1 24 .8 1.1 5.3 7.4 10 14s10 14 11.8 16.5c1.9 2.5 20.9 29 42.3 59s42 58.7 45.7 63.8c3.7 5.2 7 10 7.3 10.8.4 1.2-20.3 1.4-149.1 1.6l-149.6.3 10 15 10 15h13c7.1 0 13-.1 13-.3 0-.2-1.1-2-2.5-4l-2.5-3.7 65.1-.3c35.8-.1 94.1-.1 129.5 0 64.4.3 64.5.3 62.7 2.3-1 1.1-2.5 3-3.3 4.1-.8 1.2-6.6 8.8-12.8 16.9-6.3 8-11.2 14.8-11 14.9.1.2 4.7 2.6 10 5.4l9.7 5.2 5.8-7.8c3.1-4.2 6-7.9 6.3-8.2.3-.3 2.4-3 4.8-6 2.3-3 4.5-6 5-6.5.4-.6 2.6-3.4 4.7-6.3 2.2-2.8 4.2-5.2 4.5-5.2.3.1 10.4 14 22.5 31.1s22.6 31.8 23.3 32.7c.7.9 9.8 13.6 20.2 28.2 10.4 14.6 19.6 27.4 20.4 28.5 8.5 11.6 42.6 59.7 42.6 60 0 .3-11.5.5-25.6.5h-25.6l.6 2.4c.3 1.4 1.5 6.4 2.6 11.3l2.1 8.8 20-.1c11 0 20.2.2 20.4.5.1.3-5.1 8.7-11.6 18.5-6.5 9.9-11.9 18.4-11.9 18.8 0 .4-.4.8-1 .8-.5 0-1 .4-1 .9s-2.2 4.2-5 8.2l-4.9 7.4-.6 14c-.3 7.7-.8 15.1-1 16.5-1.1 6.6-1.5 14.4-.7 13.5.5-.6 3.8-5.5 7.4-11 9.3-14.3 36.6-55.8 46.5-70.8 4.7-7 8.8-12.7 9.1-12.7.4.1 2.5 2.8 4.7 6.1 3.6 5.3 132.8 186 145.4 203.3l5 6.9-4.3 5.6c-3.6 4.7-28 38.7-32.6 45.4-1.6 2.3-43.8 61.7-46.4 65.2-.8 1.1-5.3 7.4-9.9 14-4.7 6.6-9 12.5-9.6 13.2-.6.7-1.1 1.5-1.1 1.7 0 .3-.7 1.4-1.5 2.3-1.4 1.7-5.9 8-26.3 36.7-4.2 6-9 12.8-10.7 15.1-1.6 2.3-5.2 7.4-8 11.3-2.7 4-5.3 7.2-5.6 7.2-.5 0-5.4-7.3-40.4-60.5-24-36.4-35.8-54.4-55.3-84-9.1-13.8-20.3-30.7-24.8-37.8-4.6-7-8.6-12.7-9-12.7-.3 0-1.8 1.2-3.3 2.7-1.4 1.6-4.9 4.9-7.7 7.5l-5.1 4.6 5.3 8.4c3 4.5 5.9 9 6.4 9.8 1.5 2.1 17.3 25.9 18.5 27.8 2 3.1 48.2 73.5 76.9 117 9.1 13.9 16.6 25.4 16.6 25.7 0 .3-27.9.6-62 .7l-62 .3 7.3 11 7.3 11 54.2.5 54.2.5-3.8 5.5c-2.1 3-14.8 20.8-28.1 39.4-18.7 26.1-24.1 34.3-23.4 35.7 1.5 3.2 11.8 18.9 12.4 18.9.5 0 9-11.7 14.2-19.4.6-1 2-2.8 2.9-4 .9-1.3 12.1-16.8 24.8-34.7 12.7-17.8 23.4-32.3 23.7-32.2.3.1 8.8 12.7 18.8 28 10.1 15.3 26.6 40.4 36.8 55.8 10.1 15.4 25.1 38.1 33.2 50.5 8.2 12.4 17.5 26.4 20.7 31.2l5.9 8.8H765c-119.8 0-120.1 0-119-2 1.3-2.4 4-2.1-25-2.1-31.2 0-28.3-.2-27 2.1 1.1 2 .8 2-125 2-69.3 0-126-.2-126-.6 0-.6 3.8-6.4 26.5-40.9 30.1-45.7 44.9-68.1 55-83.5 5.6-8.5 15.6-23.7 22.2-33.8l12.1-18.4 10.3 13.4c5.7 7.3 13.7 17.7 17.8 23.1 6.6 8.6 28 36.2 32.9 42.4.9 1.2 2.6 3.4 3.7 4.9 1.1 1.5 5.4 7.1 9.5 12.3 4.1 5.3 10.1 13.1 13.4 17.4 6.7 8.8 9.6 11.5 4.2 3.8-2-2.8-3.6-5.3-3.6-5.6 0-.3-2.6-4.7-5.9-9.7-3.2-5.1-12.5-20.1-20.6-33.3-8.1-13.2-15.8-25.6-17-27.5-1.3-1.9-15.9-25.5-32.5-52.4-27.3-44.2-34.7-55.3-51.5-76.6-2.8-3.6-8.2-10.6-12-15.5-15.2-19.7-31.7-41.2-34.3-44.4-1.5-1.9-3-3.8-3.3-4.4-.5-.7-15.5-1.2-26.7-.8-2 .1-1.2 1.5 6.8 11.9 19 24.7 35.3 45.8 37.6 48.7 12.7 16.2 47.4 61.5 47.4 62 0 .3-33.7.5-75 .5h-75l-.1 5.5c-.1 3-.1 6.4-.1 7.5 0 1.1 0 3.8.1 6l.1 4h151.9l-13.8 20.8c-7.5 11.4-17 25.6-20.9 31.7-3.9 6-7.6 11.7-8.2 12.5-1.7 2.5-38.8 58.8-45.5 69-3.4 5.2-12.9 19.6-21 32-19 28.8-25.5 39-25.5 39.5 0 .3 67.1.5 149 .5h149.1l-1.2 2.2c-.6 1.2-1.6 2.7-2.1 3.2-.5.6-6.4 8.8-13.1 18.3-6.7 9.5-12.9 18.2-13.7 19.3-1.5 2.2-15.2 21.3-23.7 33.2-2.6 3.7-7 9.7-9.6 13.5-2.7 3.7-8.9 12.4-13.8 19.3-10.9 15.2-9.9 13.8-20.3 28.5-4.6 6.6-9.3 13.1-10.3 14.5-1 1.3-8.2 11.5-16 22.5-7.8 11-14.6 20.4-15 21-.5.5-2.3 3-4 5.5-10.1 14.3-40.6 57.1-43.2 60.6-1.7 2.3-3.1 4.4-3.1 4.8 0 .3 91.6.6 203.6.6 200.2 0 203.7 0 205.3 1.9.9 1.1 4 5 6.9 8.8 11.8 15.3 29 37.6 39.1 50.8 6 7.7 14.1 18.3 18.2 23.5 8 10.4 43.9 56.9 45.2 58.5 1.3 1.7 40 51.9 42.7 55.5 1.4 1.8 5.4 6.9 8.9 11.4 3.4 4.5 6.5 8.7 6.8 9.3 1.1 2.7 3.1.8 12.8-11.8 5.5-7.2 12.7-16.5 16-20.8 3.3-4.3 7.1-9.2 8.5-11.1 1.4-1.8 3-3.8 3.5-4.4.6-.6 3.6-4.5 6.7-8.6s10.9-14.3 17.3-22.5c6.4-8.3 12.4-16.1 13.3-17.4.9-1.3 2.2-2.8 2.7-3.5.6-.6 5.3-6.7 10.5-13.6 5.2-6.9 10.7-13.8 12.2-15.5 1.6-1.6 2.8-3.3 2.8-3.7 0-.4.6-1.3 1.3-2 .7-.7 4.2-5.1 7.7-9.8 3.6-4.6 7.1-9.1 7.7-10 .7-.8 9.2-11.9 19-24.5 9.7-12.7 20.7-26.8 24.3-31.5l6.6-8.5 10.8-.3c12.7-.3 12.1 1.7 5.2-17.7-2.6-7.2-5.6-15.7-6.8-19-1.1-3.3-2.3-6.3-2.7-6.7-.4-.5-4.5 4.2-9.1 10.2l-8.5 11-160-.2-159.9-.3-29.1-37.6c-15.9-20.7-30.1-39.1-31.5-40.9-1.4-1.9-4.1-5.4-6.1-7.9-1.9-2.5-17.3-22.4-34-44.1-16.8-21.7-37.8-49-46.7-60.5-9-11.6-17.3-22.3-18.5-23.9-1.2-1.6-3.1-4.1-4.3-5.5-1.1-1.4-5.7-7.4-10.2-13.3L641 1441h258.5l8 12.3c7.9 12.2 24.6 37.6 58.9 89.7 10 15.1 19.5 29.6 21.1 32.2 1.7 2.7 3.4 4.7 3.8 4.5.4-.1 7.3-10.1 15.2-22.2 7.9-12.1 14.9-22.7 15.5-23.5 1.1-1.6 21.2-32.1 41.4-63 20.1-30.6 19.7-30 22.3-30 1.2 0 2.3-.4 2.3-.8 0-.5-1.6-5.4-3.6-10.8s-4.4-12.1-5.3-14.8l-1.8-4.9-3.2 4.7-3.2 4.6H911.3l-5.4-8.2c-2.9-4.6-13.9-21.4-24.4-37.3-10.6-16-23.4-35.5-28.7-43.5-5.2-8-16.5-25.1-25-38-25.3-38.4-36.8-56.1-36.8-56.5 0-.3 50.4-.5 112-.5s112-.3 112-.8c0-.4-1.6-5.5-3.7-11.5l-3.7-10.7H900.3c-59 0-107.3-.3-107.3-.8.1-.4 4.2-6.4 9.3-13.4 5.1-7 14.2-19.8 20.2-28.3 6.1-8.6 12.6-17.8 14.5-20.4 5-6.9 5.2-7.2 22.5-31.6 8.6-12.1 16.3-22.9 17.1-24 .8-1.1 7.9-11 15.7-22 7.9-11 19-26.5 24.7-34.5 5.6-8 12.3-17.3 14.7-20.8l4.5-6.4-4.3-12.1c-2.4-6.7-4.4-12.7-4.6-13.2-.1-.6-1.5-4.6-3.2-9-1.6-4.4-5.7-15.9-9.1-25.5-3.4-9.6-7.8-22-9.7-27.5-3.3-9.3-5-12.1-24.2-39-11.3-16-20.9-29.5-21.4-30-.8-1-35.3-49.1-41.3-57.7-1.8-2.5-7.4-10.3-12.3-17.3-5-6.9-9.1-13-9.1-13.4 0-.4 11.7-.7 26-.7 14.3.1 26-.1 26-.4 0-.3-1.6-5.3-3.6-11.2l-3.7-10.8-26.9-.2-26.8-.3 2.4-3.5c1.4-1.9 9.2-13.8 17.4-26.4l15-22.8-4.4-12.6c-2.5-7-4.7-12.8-4.9-13-.2-.2-1.7 1.8-3.4 4.4-1.6 2.6-3.4 5.5-4.1 6.4-.6.8-8.9 13.4-18.4 27.9l-17.4 26.3-3.9-5.3c-2.2-3-14.7-20.5-27.8-38.9-13.1-18.4-25.5-35.8-27.5-38.5-2.9-3.9-47.6-66.3-59.9-83.6-1.4-2-3.6-5-4.9-6.8l-2.3-3.1h65c35.8 0 65.1-.4 65.1-.8 0-.5-1.6-5.2-3.5-10.6-1.9-5.4-3.5-10-3.5-10.2 0-.2-27.3-.5-60.6-.6l-60.5-.3 4.6-6c2.5-3.3 5.7-7.4 7-9 1.2-1.7 10.1-13.1 19.6-25.5 9.5-12.4 20-26.1 23.4-30.5 3.4-4.4 7.8-10.3 9.9-13 2.1-2.8 4.9-6.4 6.2-8 9.3-12 11.4-15 11.4-16.1 0-1.2-7.8-23.5-8.4-24.1-.2-.2-3.5 3.8-7.4 8.9-3.8 5.1-10.1 13.3-13.9 18.3-3.8 4.9-13.3 17.3-21.1 27.5-7.8 10.2-14.8 19.2-15.5 20-.6.9-3.2 4.2-5.7 7.5s-4.9 6.5-5.5 7.1c-.5.6-1.9 2.3-3 3.8-6.1 8.5-24.7 31.8-25 31.4-.4-.3-30.7-42.7-109.4-152.9-23.3-32.7-46-64.3-50.4-70.2-4.3-6-7.7-11-7.5-11.3.3-.2 78.8-.3 174.6-.2l174.2.3-2.5 3c-1.3 1.6-2.8 3.5-3.2 4-.5.6-1.4 1.8-2.2 2.8-1.3 1.7-.6 1.7 13 1.6l14.4-.2 4.5-5.9 4.4-5.8h318.5l2.2 3.2c1.3 1.8 4.8 6.5 7.9 10.4 3 3.8 6.6 8.5 8 10.3 1.4 1.9 5.9 7.7 10 13.1 4.1 5.4 8.6 11.2 10 13 1.4 1.8 5.7 7.4 9.5 12.4 12.9 16.7 20.9 27 29 37.6 4.4 5.8 8.5 11.2 9.2 12 1.1 1.3 23.1 30 28.6 37.3 1.2 1.6 3.6 4.6 5.2 6.6 2.5 3.2 21.1 27.4 43.4 56.5 3 3.9 8.4 10.9 12 15.6 3.7 4.7 7.7 10 9 11.7l2.2 3.3h-255.2l-22.6-34.3c-12.4-18.8-27.9-42.3-34.4-52.2-6.5-9.9-12.2-18.5-12.7-19-.5-.6-1.1-1.5-1.3-2.1-.9-2.2-19.2-29.4-19.8-29.4-.3.1-2.6 3.2-5 7.1-3.4 5.5-4.2 7.5-3.6 9.7 1 4.3 7.8 22.7 8.6 23.2.3.3 3.1 4.3 6.1 9 7.2 11.1 47.6 72.6 53.3 81l4.4 6.5-14.9.3c-8.3.1-15 .4-15 .6 0 .8 6.2 18.2 7.1 19.8.9 1.6 2.6 1.8 19.2 1.8h18.3l10.1 15.2c5.5 8.4 16.9 25.9 25.4 38.8 8.5 12.9 23.1 35 32.4 49.2 42.4 64.3 56 85 56.3 85.9.2.5-18.7.9-46.7.9-25.9 0-47.1.3-47.1.6 0 1.5 7.3 20.9 8 21.4.5.3 18.6.5 40.3.4 35.5 0 39.5.2 38.7 1.5-.5.9-7.1 10.3-14.7 20.8-7.6 10.6-16.5 23.1-19.8 27.9-3.3 4.7-6.5 9.1-7 9.7-.6.7-3.1 4.1-5.5 7.7-2.5 3.6-4.8 6.7-5.2 7-.6.5 7.6 25.5 8.7 26.8.2.2 22.5-30.5 27.7-38.2.7-1 3.6-4.9 6.3-8.6 2.8-3.8 8.6-12 13-18.2 4.4-6.2 8.3-11.8 8.8-12.3 1.8-2.3 10.3-14.3 11.8-16.5 1.9-2.8-7.3-16.2 74.4 108 7.8 11.8 19.3 29.4 25.7 39 6.3 9.6 18.6 28.3 27.3 41.5s16 24.7 16.2 25.6c.3.8-2.7 6.3-6.5 12-3.9 5.7-12.9 19.4-20.1 30.4-7.2 11-13.4 20.4-13.8 21-.5.5-6.9 10.2-14.3 21.5-41.2 62.8-48.5 73.9-51.5 78.3-3.3 4.8-3.3 4.9-1.8 9 .8 2.3 1.6 4.6 1.7 5.2.1.5.4 1.4.7 2 .4.5 1.6 4 2.8 7.7 2.2 6.8 3.4 8.1 4.4 5.4.6-1.5 5.6-9.2 31.5-48.6 7.5-11.3 19.6-29.7 27-41 7.4-11.3 18.2-27.7 24-36.5 5.8-8.8 15-22.7 20.3-30.9l9.8-14.8 20.3 30.8c11.2 17 25 37.9 30.6 46.4l10.2 15.4v-19.7c0-13.2-.4-20.6-1.2-22-1.2-2.4-35.3-54.2-42.3-64.5l-4.4-6.4 3.5-5.3c1.9-3 3.4-5.7 3.4-6.1 0-.6-10.6-19-11.7-20.4-.3-.3-1 .3-1.6 1.2-.7 1-2.5 3.6-4 5.8l-2.9 4.1-15-22.8c-17.2-26.1-27.1-41.1-42-63.8-5.8-8.8-17.6-26.8-26.3-40-42.8-64.9-48.5-73.6-48.5-74.3 0-.5 4.8-.8 10.8-.7 13.4.1 13.7 0 11.4-3.4-1.8-2.8-2.2-3.4-7.8-12.8l-3.8-6.2-7.3-.3-7.3-.3 3.8-5.4 3.9-5.4-5-8.1c-2.7-4.5-5.6-9.2-6.4-10.5l-1.5-2.4-2.2 2.6c-1.1 1.4-4.3 5.8-7 9.7-2.7 3.8-5.2 7-5.5 7-.3 0-2.8-3.5-5.6-7.8-5.3-8.3-32.9-50.2-78-118.7-7.3-11-14-21.5-15.1-23.3-1-1.7-2.2-3.2-2.6-3.2-.4 0-.8-.4-.8-.9s-3.2-5.7-7.1-11.6c-3.9-5.9-6.9-10.8-6.7-11.1.3-.2 55-.3 121.5-.2l121.1.3-10.3 14.5c-5.7 8-11.3 15.7-12.5 17.2-1.2 1.6-2 3.4-1.8 4.1.7 2.7 11.3 20.7 12.1 20.4.4-.1 7-9 14.7-19.7 18.9-26.6 19.2-27 20.1-26.4.7.4 22.1 27.9 34.6 44.4 2.2 3 9.9 13 17 22.1 7 9.2 13.9 18.1 15.3 19.9 9.2 12.1 50.1 65.1 59.6 77.5l11.6 15-47.6.3c-26.2.1-47.6.4-47.6.6 0 .3 2.9 5.3 6.4 11.3l6.4 10.8h41.6c22.9-.1 41.6.3 41.6.7 0 .4-4.4 7.4-9.8 15.5s-15.2 23.1-21.9 33.2l-12.1 18.3 6 10.2c6.7 11.2 6.9 11.5 7.4 10.1.2-.6 12.3-18.9 26.8-40.8l26.3-39.9 3.9 5.4c2.1 2.9 4.3 5.8 4.9 6.4.5.7 5 6.4 10 12.9 10.3 13.4 8.4 13.5 16.7-.7l4.6-8-6.7-8.7c-3.7-4.7-7.6-10-8.8-11.7l-2.2-3h15.7l15.7.1 5.9-10c3.2-5.5 6.1-10.6 6.3-11.3.4-.9-4.5-1.2-22.6-1.2-12.7 0-23.1-.2-23.1-.5 0-.6 5.6-9.3 24.2-37.5 23.6-35.9 54.5-82.8 68.5-104 7.4-11.3 20.8-31.6 29.8-45.3l16.3-24.7h-148.9c-81.9 0-148.9-.3-148.9-.6s3-4.7 6.6-9.8c3.6-5 9.7-13.6 13.7-19.1 5.9-8.3 74.8-104.7 79.3-111 .8-1.1 6.6-9.2 12.9-18 6.3-8.8 12.1-16.9 12.9-18 .8-1.1 4.2-5.8 7.5-10.5s6.7-9.4 7.5-10.5c.8-1.1 7.6-10.6 15-21 7.5-10.5 14.4-20.1 15.3-21.4 1-1.4 3.2-4.3 4.8-6.6 1.7-2.2 5-6.9 7.4-10.5 2.5-3.6 5-6.8 5.5-7.2.6-.4-91.9-.8-205.5-.8h-206.7l-5-6.8c-2.7-3.7-6.9-9.2-9.3-12.2-2.3-3-16.9-21.9-32.3-42-15.4-20.1-28.5-37-29.1-37.7-1.7-2-2.8-3.5-7.9-10.3-2.7-3.6-13.1-17-23-29.8-10-12.9-19-24.7-20.1-26.2-1.1-1.6-10.8-14.2-21.5-28.1-10.7-13.9-20-25.9-20.6-26.7-.9-1.2-3.6 1.8-14 15.3zM993 81.7c0 .5 2.4 3.8 5.3 7.4l7.7 9.9c1.4 1.8 6.6 8.6 11.5 15 5 6.5 10.1 13.2 11.5 15 1.3 1.7 7.5 9.8 13.7 17.8 6.2 8.1 15.9 20.7 21.6 28.1 5.6 7.3 12.7 16.5 15.7 20.5 7.3 9.3 15.7 20.2 36.3 47.1l16.9 22-70.5.3c-38.8.1-102.6.1-141.8 0l-71.2-.3 8.1-10.5c11.2-14.4 10.4-13.4 25.1-32.5 7.2-9.4 15.5-20.1 18.4-23.9 2.8-3.7 7.2-9.4 9.7-12.6 2.5-3.2 7.7-9.9 11.5-15 3.9-5.1 7.5-9.7 8-10.4.6-.6 2.3-2.9 4-5.1 1.6-2.2 3.5-4.7 4.2-5.5.7-.8 7.8-10.1 15.8-20.5 8-10.5 15.1-19.7 15.8-20.5.7-.8 5.6-7.2 11-14.3 8.7-11.3 11.7-14.3 11.7-12zm536 205.8c0 .5-7.4 11.2-13.6 19.5-1.8 2.5-8.3 11.5-14.3 20s-11.4 15.9-11.8 16.5c-.5.5-2.4 3.2-4.3 6-1.9 2.7-3.8 5.4-4.2 6-.5.5-2.3 3-4 5.5-5 7-24.6 34.3-26.2 36.5-.8 1.1-11.9 16.6-24.6 34.5-12.7 17.9-24 33.6-25 35-1.7 2.2-9.2 12.8-16.2 22.8-1.3 1.8-2.8 3.9-3.3 4.5-.6.7-2.6 3.4-4.5 6.2-1.9 2.7-3.9 5.5-4.5 6.2-.5.6-2.6 3.5-4.5 6.3-1.9 2.9-4.4 6.3-5.5 7.7l-2.1 2.5-4.4-5.7c-2.5-3.1-4.9-6.2-5.5-6.9-.5-.6-3-3.8-5.5-7.1s-5.1-6.6-5.7-7.5c-.7-.8-25.1-32.6-54.3-70.5-29.2-38-53.6-69.7-54.3-70.5-.7-.9-3.3-4.2-5.7-7.5-2.5-3.3-5.1-6.6-5.7-7.5-1.2-1.4-17.8-23-32.4-42-3.6-4.7-6.9-9.1-7.3-9.8-.6-.9 34.6-1.2 174.3-1.2 96.3 0 175.1.2 175.1.5zm112 265c0 .3-6.4 10.3-14.3 22.2-7.9 12-18.3 27.9-23.2 35.3-8.8 13.5-29.9 45.5-63.4 96.2-9.7 14.7-17.9 26.7-18.2 26.5-.6-.2-19.7-24.8-60.3-77.7-4.5-5.8-15.3-19.9-24.1-31.4-8.8-11.4-20.3-26.3-25.5-33.1-5.2-6.7-10.6-13.7-12-15.5-1.4-1.8-5.8-7.5-9.7-12.6-4-5.2-7.3-9.6-7.3-9.9 0-.3 58.1-.5 129-.5 71 0 129 .2 129 .5zm-585 889.3c0 .4-.7 1.7-1.5 2.7-.9 1.1-8.8 13-17.6 26.5-8.9 13.5-21.8 33.2-28.8 43.8-6.9 10.6-13.6 20.7-14.8 22.4l-2.2 3-13.7-20.8c-7.5-11.5-17.1-26.1-21.2-32.4-4.2-6.3-12.4-18.9-18.4-27.8-5.9-9-10.8-16.8-10.8-17.3s26.4-.9 64.5-.9c35.5 0 64.5.4 64.5.8zm-429.9 16.9c2.4 3.2 5 6.4 5.6 7.3.7.8 8.7 11.2 17.8 23 9.1 11.8 17.1 22.2 17.8 23 .7.8 12.5 16.1 26.2 34s25.5 33.2 26.2 34c.7.8 11.6 15 24.3 31.4 12.7 16.5 23.9 31.1 25 32.5 1.1 1.4 7.8 10 14.8 19.1 7 9.1 13.8 17.9 15 19.7l2.3 3.2-173.1.1c-95.1 0-173-.2-173-.6 0-.3 1.5-2.5 3.3-4.9 4-5.3 17.8-24.7 44.6-62.6 1.4-2 9.8-13.7 18.6-26s16.7-23.3 17.5-24.6c1.9-2.8 17.7-24.9 25.5-35.7 3.3-4.6 17.2-24.1 31-43.5 13.7-19.3 25.3-35.1 25.6-35.1.4 0 2.6 2.6 5 5.7zm505.3 250.4c-.6 1-44.2 57.6-51.1 66.4-2.7 3.5-1.5 1.9-13.3 17.5-5.2 6.8-10.3 13.4-11.2 14.5-.9 1.1-13.7 17.5-28.3 36.5-14.6 19-27.1 35.2-27.8 36-.7.9-3.2 4.1-5.6 7.3l-4.3 5.7-4.7-5.9c-2.5-3.2-7.1-9.1-10.1-13.1s-5.9-7.7-6.5-8.4c-.5-.6-3.2-4.1-5.9-7.6-11.5-15-59.6-77.4-62.9-81.5-.4-.6-10.5-13.6-22.4-29-11.8-15.4-23.5-30.6-26-33.8l-4.4-5.7h142.6c106.2 0 142.4.3 141.9 1.1z"/><path d="M728.7 326.8c-4.3.4-4.2 0-.5 10.2 1.1 3 3.6 10 5.5 15.5 4.7 13.6 9.1 26 11.3 32 1 2.7 3.4 9.5 5.4 15 1.9 5.5 7.5 21.5 12.5 35.7 5 14.1 9.1 25.9 9.1 26.3 0 .4.6 2.1 1.4 3.8.8 1.8 3.7 9.7 6.4 17.7 2.8 8 7.4 21 10.2 29 2.8 8 8 22.6 11.5 32.5 3.4 9.9 8.8 25.2 11.9 34 3.1 8.8 6.2 17.3 6.7 19 .6 1.6 1.5 3.9 2 5 .4 1.1 2.8 7.8 5.3 15 2.4 7.1 5.2 15 6.1 17.5.9 2.5 1.8 4.9 1.9 5.5.2.5.6 1.7.9 2.5 1 2.7 6.5 18.4 7.8 22.5.7 2.2 1.6 4.4 2 5 .3.5 1 2.3 1.4 4 .5 1.6.9 3.4 1.1 4 .6 1.9 8.5 24 10.4 29 1.1 2.7 4.9 13.5 8.6 24 3.6 10.4 8.8 25.1 11.4 32.5 2.6 7.4 8 22.7 12 34 3.9 11.3 8 22.7 9 25.5 1 2.7 6.7 18.7 12.5 35.5 5.9 16.8 11 31.4 11.5 32.5.5 1.1 3.9 10.5 7.5 21 3.7 10.4 9.4 26.6 12.7 36 3.3 9.3 8.9 25.3 12.5 35.5l12 34c3 8.5 8.2 23.1 11.5 32.5 3.3 9.3 6.8 19.2 7.8 22 3.7 9.9 25.2 71 25.5 72.5.2.8 2.2 6.4 4.4 12.5 4.1 11.4 18.7 52.6 24.8 70 1.9 5.5 4.4 12.5 5.5 15.5 1.1 3 2.1 6.2 2.3 7 .2.8 1.7 5 3.3 9.2 1.7 4.3 2.8 7.8 2.5 7.8-.3 0-.1.6.4 1.2.6.7 2.4 5.3 4.1 10.3 1.7 4.9 5.4 15.5 8.2 23.5 2.8 8 6.3 17.9 7.6 22 1.4 4.1 2.9 8.4 3.4 9.5.5 1.1 2.8 7.4 5 14 2.3 6.6 4.6 12.9 5 14 .5 1.1 2.7 7.4 5 14s5 14.2 6 17c1 2.7 6.4 18 12 34 5.6 15.9 11.2 31.9 12.5 35.5 1.3 3.6 6.7 18.9 12 34 5.3 15.1 10.5 30 11.7 33 1.1 3 4.8 13.6 8.3 23.5 3.5 9.9 9 25.6 12.3 35 3.3 9.3 8.1 23.1 10.7 30.5 4.7 13.6 5.4 15.4 7.3 20 .6 1.4 1.3 3.4 1.5 4.5.3 1.1 2.4 7.2 4.7 13.5 2.2 6.3 5.9 16.7 8.1 23 2.3 6.3 4.8 13.6 5.7 16.1l1.7 4.5h39.9c25.1-.1 40.4.3 41.3.9.7.5 2.5 4.4 3.9 8.5s2.9 8.4 3.4 9.5c.4 1.1 2.3 6.3 4.1 11.5l3.3 9.6h58.3c32.6 0 58.3-.4 58.3-.9s-.6-2.3-1.4-4c-.7-1.8-5.3-14.5-10.1-28.2-4.7-13.8-9.5-27.3-10.5-30-1-2.8-4.6-12.7-7.9-22-3.2-9.4-8.7-24.8-12-34.3-3.4-9.4-8.8-25-12.2-34.5-3.3-9.4-7.1-20.1-8.4-23.7-1.3-3.6-6.7-18.9-12-34-12.7-36-19.7-55.8-23-65-1.4-4.1-4.4-12.5-6.5-18.5-2.1-6.1-6.1-17.5-9-25.5-2.8-8-5.3-15-5.4-15.5-.2-.6-.6-1.7-.9-2.5-.9-2.1-10.5-29.3-12.7-36-1-3-2.5-7.3-3.3-9.5-.9-2.2-2.9-7.9-4.6-12.8-1.7-4.8-4.4-12.4-6-17-1.6-4.5-5.6-15.9-8.9-25.2-20.5-58-24.6-69.7-26.9-76-1.4-3.9-5.3-15.1-8.8-25-3.5-9.9-8.6-24.3-11.3-32-2.7-7.7-8.2-23.2-12.2-34.5-3.9-11.3-9.6-27.3-12.5-35.5-2.9-8.3-6.9-19.5-8.8-25-5.7-16.1-25.1-70.9-42.7-120.5-6.1-17.3-11.3-32-11.4-32.5-.2-.6-.6-1.7-.9-2.5-.5-1.4-5.7-16.2-7.9-22.5-.5-1.7-1.4-3.9-1.8-5-.5-1.1-2.7-7.6-5.1-14.5-2.3-6.9-4.6-13-4.9-13.5-.4-.6-1-2.1-1.3-3.5-.3-1.4-2.4-7.7-4.7-14-2.3-6.3-4.8-13.5-5.6-16-.8-2.5-1.9-5.4-2.4-6.5-.5-1.1-2.9-7.9-5.4-15-2.4-7.2-6.8-19.5-9.6-27.5s-5.8-16.5-6.6-19c-.8-2.5-1.9-5.4-2.4-6.5-.5-1.1-2.7-7.2-4.9-13.5-4.6-13.5-18.8-53.8-30.6-87-4.6-12.9-10.2-28.7-12.4-35-4.7-13.7-13.1-37.4-19.6-55.5-2.5-7.2-6.6-18.6-9-25.5-4.7-13.8-23.5-67-35.2-99.5-4.1-11.6-7.6-21.7-7.8-22.5-.2-.8-2.2-6.5-4.4-12.5-2.1-6.1-5.8-16.4-8.2-23-2.3-6.6-4.3-12.1-4.4-12.3-.2-.2-18.6-.3-41-.4h-40.7l-1.3-3.2c-.7-1.7-3.8-10.5-7-19.6-3.2-9.1-5.9-16.7-6.1-16.9-.4-.4-107.4-.7-112.7-.3zm126.8 40.4c.1.2 6.2 17.2 13.5 37.8 7.2 20.6 14 39.7 15 42.5 1.8 4.7 9.5 26.5 17.7 50 1.9 5.5 4.5 12.9 5.8 16.5 1.3 3.6 5.1 14.1 8.3 23.5 3.3 9.3 12.2 34.3 19.7 55.5 7.5 21.2 13.8 39.2 14 40 .2.8 3.4 9.8 7 20 5.9 16.5 11.7 32.9 30.2 85 3 8.5 6.1 17.3 6.8 19.5.7 2.2 2.2 6.5 3.4 9.5 1.1 3 5 14 8.7 24.5 3.6 10.4 8.8 25.3 11.6 33 2.7 7.7 5.6 16 6.4 18.5.8 2.5 1.9 5.4 2.4 6.5.4 1.1 2.7 7.4 5 14s5 14.2 6 17c1 2.7 5.1 14.2 9 25.5 3.9 11.3 8.4 24.1 10 28.5 6.2 17.4 8.9 25.1 29.6 84 11.8 33.5 22.3 63.2 23.4 66 1 2.7 3.4 9.5 5.4 15 3.3 9.6 8.8 25.2 21.8 62 3.3 9.3 8.6 24.4 11.8 33.5 7.6 21.6 16.6 46.9 23 65 2.9 8 5.6 15.6 6 17 .9 2.7 9.6 27.3 18 51 2.8 8 6.9 19.4 9 25.5 2.1 6 6.1 17.5 9 25.5 2.8 8 7 19.7 9.2 26 6.7 19.1 9.4 26.9 14.3 40.5 2.6 7.1 4.8 13.4 4.9 14 .2.5.6 1.7.9 2.5.3.8 1.8 4.9 3.2 9 10.3 29.5 13.7 39 18 51 1.3 3.6 6.6 18.6 11.9 33.5 5.2 14.8 10.4 29.7 11.6 33 1.1 3.3 5 14.3 8.6 24.5 3.6 10.2 7.6 21.4 8.9 25 2.7 7.5 7 19.7 12.5 35.5 2.1 6 4.9 14.1 6.3 18 1.5 3.8 2.4 7.2 2.1 7.5-.3.3-8.1.5-17.3.6l-16.7.1-7.7-21.6c-14-39.4-17.9-50.5-21.3-60.6-1.9-5.5-3.9-10.9-4.3-12-.5-1.1-3.5-9.4-6.6-18.5-3.1-9.1-7.7-21.9-10.1-28.5-2.4-6.7-4.4-12.6-4.4-13.3 0-.7-.4-2-.9-3-1.4-2.8-2.8-6.4-4.4-11.2-.8-2.5-3.8-11-6.7-19-2.8-8-5.5-15.6-6-17-.4-1.4-2.9-8.4-5.5-15.5-2.6-7.2-4.8-13.5-4.9-14-.2-1.3-5.5-16.4-6.7-19-.4-1.1-1.5-4-2.3-6.5-.8-2.5-3.6-10.4-6.1-17.5-2.6-7.2-7.6-21.3-11.2-31.5-3.5-10.2-7.8-22.1-9.3-26.5-10.5-29.4-13.2-37.2-13.5-38.7-.2-.9-.8-2.5-1.3-3.5s-2.6-6.6-4.6-12.6c-2-5.9-4.3-12.4-5.1-14.5-.8-2-5.8-16.1-11.1-31.2-5.3-15.1-12.1-34.5-15.1-43s-8.1-22.9-11.3-32c-3.2-9.1-12.4-35.2-20.5-58-8.1-22.8-17.3-48.9-20.5-58-3.2-9.1-6.6-18.5-7.5-21-.9-2.5-1.8-5.2-2.1-6-.2-.8-2.1-6.5-4.3-12.5-4.2-11.7-12.5-35.4-22.1-62.5-5.5-15.8-35.1-99.6-39.2-111-1.1-3-7.5-21.3-14.3-40.5-6.8-19.3-13.5-38.2-14.8-42-2.3-6.3-7.8-22.1-26.9-76-3.3-9.4-7.3-20.8-8.9-25.5-1.7-4.7-4.3-12.1-5.9-16.5-4.1-11.5-22.9-64.8-44.5-126-10.3-29.2-21.1-59.8-24-68-2.9-8.3-10.8-30.5-17.5-49.5-6.7-19-13.2-37.6-14.6-41.3-1.3-3.8-2.4-7.1-2.4-7.5 0-.7 33.9-.7 34.5 0zM167.6 585c-.1.3-.2 181.6-.2 403l.1 402.5 46.7.2 46.7.1v-162.5c0-89.4.2-162.7.5-163 .7-.7 134.4-.6 135.5.2.5.3 1.6 1.8 2.4 3.3 1.2 2.4 21.2 34.8 47 76.1 4.9 8 9.7 15.7 10.6 17.3 1.8 3.1 26 42.2 29.9 48.3 5 7.8 37 59.5 40.1 64.7.9 1.5 7.2 11.9 14.1 23 6.9 11.2 22.6 36.6 34.9 56.5l22.4 36.1h56.3c31 0 56.4-.2 56.4-.4 0-.3-.5-1-1-1.7-1-1.1-10.7-16-21.8-33.5-2.6-4.1-8-12.3-11.9-18.3-4-6-7.3-11.3-7.3-11.8 0-.4-.9-1.6-2-2.6s-2-2.1-2-2.5c0-.4-4.2-7.1-9.2-14.9-5.1-7.7-12.4-18.9-16.3-24.8-3.8-6-10.4-16.2-14.7-22.8-4.2-6.6-8.2-12.5-8.8-13.2-.5-.7-1-1.5-1-1.8 0-.3-3.6-5.9-8-12.6-4.4-6.6-8-12.3-8-12.6 0-.3-1.3-2.2-3-4.3-1.6-2.1-3-4.2-3-4.7 0-.6-.9-1.8-2-2.8-1.1-1-2-2.2-2-2.6 0-.5-4.3-7.5-9.6-15.6s-13.1-20.1-17.3-26.6c-4.2-6.4-11.6-17.9-16.6-25.5-4.9-7.6-11.9-18.3-15.4-23.8-3.5-5.4-8.2-12.8-10.6-16.4-2.3-3.6-8.6-13.2-14-21.4-9.9-15.3-11.4-17.9-9.9-17.4.5.1 2.5-.1 4.4-.5 42.5-8.6 81.2-27.1 110.4-52.7 8.7-7.7 17.1-16.6 28.7-30.8.6-.8 4.1-5.7 7.6-11 12.4-18.5 25.9-49.7 30.8-71.2.1-.8.8-3.3 1.4-5.5.5-2.2 1.3-5.6 1.6-7.5.3-1.9 1-6 1.5-9 2.6-15.9 3.5-27.4 3.5-48 0-16.3-.7-30.5-1.9-37.5-.3-1.7-1-6.2-1.6-10-.7-3.9-1.6-8.4-2.1-10-.4-1.7-1.1-4.6-1.4-6.5-.3-1.9-1-4.6-1.5-6-.5-1.4-1.8-5.8-3-9.8-4-13.7-12.4-32-22.5-49.1-6.1-10.2-17.1-23.8-28.9-35.6-24.4-24.4-53-41.7-90.6-54.7-8.4-2.9-31.9-9.1-39.5-10.3-2.2-.4-5.3-.9-7-1.1-1.6-.3-4.1-.7-5.5-1-4.2-.7-18.1-2.3-26.5-3-9.4-.8-285.5-1.2-285.9-.4zM443 668.4c1.9.3 5.5.8 8 1.1 9.4 1.3 11.7 1.7 20 3.6 46.8 10.8 82.7 37.3 101.7 75.4 6.3 12.4 12 30.1 13.8 42.1.4 2.1.9 5 1.2 6.4.3 1.4.7 10.8.8 21 1.2 63.5-23.1 111.7-70.5 140.2-14.6 8.7-39.4 17.8-55.5 20.2-3.3.5-10.3 1.6-15 2.4-1.6.2-44.3.6-94.7.9-73.8.3-91.8.1-91.9-.9 0-1.4 0-298.9.1-307.9v-5.6l89.3.3c49 .1 90.8.5 92.7.8z"/><path d="M407 692.1c0 .5 7.2 11.8 16 25.1l16 24.3-77 .3c-72.4.2-77 .3-77.1 2-.1 2-.1 18.2 0 19.7.1.7 25.8 1 75.2.9 41.2 0 75.2.3 75.5.7.2.4-1.5 3.1-3.9 6.1-5.3 6.5-8.5 10.7-40.1 51.8-13.7 17.9-27.7 36-31 40.3-13.9 18-25 32.5-28.9 37.7-2.2 3-4.3 5.7-4.7 6-.3.3-5.8 7.2-12 15.5-6.3 8.2-13.4 17.5-15.8 20.5-2.3 3-5.8 7.6-7.7 10.2L288 958h27.8l3.9-4.9c2.1-2.7 5.5-7.1 7.5-9.7 5-6.6 20.5-26.6 21.6-27.9.4-.6 9.2-12 19.5-25.5 10.4-13.5 19.4-25.2 20-26 .7-.8 2.6-3.3 4.2-5.5 1.7-2.2 4.8-6.3 7-9 2.2-2.8 4.9-6.3 6-7.9 1.1-1.6 2.5-3.3 3-4 1.1-1.1 15.8-20.2 37.3-48.4 6.9-8.9 12.8-16.2 13.2-16.2.7 0 22.8 32.9 23.9 35.5.2.5.8 1.4 1.3 2 .5.5 5.5 8 11.1 16.5 36.8 56.3 48.2 73 49.1 72.7 1.3-.4 10.6-18.6 10.6-20.8 0-.9-5.3-9.7-11.8-19.5-6.5-9.8-17-25.8-23.3-35.4-6.3-9.6-12.4-18.8-13.5-20.4-2.4-3.6-1.9-2.8-14.6-22.3-6-8.9-10.8-16.4-10.8-16.6 0-.2 15.6-.3 34.8-.2 19.1 0 35.5-.1 36.4-.3 1.6-.4 1.3-1.3-1.8-7.1-2-3.6-5-8.5-6.6-10.9l-2.9-4.2H512c-16 0-29-.2-29-.5 0-.2 4.9-6.9 11-14.7 6-7.9 10.8-14.8 10.7-15.3-.4-1-19.6-10-20.1-9.4-6.5 8.9-24 30.9-24.6 30.9-.4 0-1-.6-1.3-1.4-.3-.8-3.2-5.3-6.4-10.1s-6.2-9.4-6.8-10.3c-5.6-9.1-12.8-19.2-13.8-19.3-5.9-.6-24.7-.4-24.7.2zM1180 584.7c0 .2 24.9 41.3 36 59.5 2.8 4.6 5.5 9 6 9.8.5.8 11.1 18.3 23.7 38.9 12.5 20.5 23.5 38.5 24.3 40 .9 1.4 2.3 3.7 3.2 5.1 1.5 2.4 28.4 46.6 31.7 52.2 2.4 4 21.9 36.1 33.3 54.8 5.6 9.1 13.8 22.6 18.3 30 4.5 7.4 12.6 20.7 18 29.5s10.5 17.2 11.4 18.7c1.8 3.2 37.3 61.4 55.7 91.5l12.4 20.2v356h46l46-.1V1034.5l2.5-3.7c1.4-2 2.5-4 2.5-4.3 0-.4.8-1.9 1.9-3.3 1-1.5 7.6-12.2 14.6-23.7 35.3-58.1 40.3-66.2 41.6-68.5.8-1.4 1.6-2.7 1.9-3 .3-.3 1.1-1.6 1.9-3 .8-1.4 6.1-10.2 11.8-19.5 5.8-9.4 10.8-17.7 11.4-18.5.5-.8 4.7-7.7 9.4-15.3 4.7-7.6 8.5-14.1 8.5-14.3 0-.2 1.9-3.4 4.3-7.2 2.3-3.7 4.7-7.7 5.4-8.8.6-1 6.9-11.3 14-22.8 7-11.5 13.7-22.5 14.9-24.5 1.1-2 5.1-8.6 8.9-14.6 3.7-6.1 7.5-12.4 8.5-14 .9-1.7 3.9-6.6 6.6-11 2.7-4.4 5.4-8.8 5.9-9.7.6-.9 2.6-4.3 4.6-7.5 2-3.2 10.5-17.3 19.1-31.3 8.5-14 18.1-29.8 21.3-35 3.2-5.2 6.6-10.9 7.5-12.5 1-1.7 5.3-8.9 9.7-16 22.2-35.9 34.8-56.9 34.6-57.4-.2-.3-24.7-.6-54.4-.6-53.3-.1-54.2 0-55.4 2-.7 1.1-4.4 7.4-8.2 14-3.9 6.6-13.8 23.5-22.1 37.6-8.2 14.1-16.1 27.6-17.4 30-1.4 2.4-4 6.9-5.8 9.9-3 5-22.2 37.8-42.5 72.5-4.5 7.7-16.8 28.8-27.4 46.8-10.6 18.1-20 34.3-21 36-1 1.8-11.6 19.8-23.5 40.1s-21.6 37.3-21.6 37.7c0 .5-.4.9-1 .9-.5 0-1 .4-1 1 0 .5-3.8 7.4-8.5 15.3-8.2 13.9-8.7 14.4-11.8 14.4-3.4-.1-4.9-1.7-9.9-10.7-1.4-2.5-3.4-6.1-4.5-8-6.2-10.6-11.5-19.7-12.4-21-3.9-6.1-63.9-109.5-63.9-110.2 0-.4-.4-.8-1-.8-.5 0-1-.5-1-1 0-.9-8.3-15.4-12-21-.6-.8-1.3-2.2-1.7-3-.3-.8-3.2-5.8-6.4-11-3.1-5.2-6.6-11.1-7.7-13-1-1.9-11.9-20.6-24.2-41.5-23.3-39.8-24.5-41.9-27.8-47.5-1.1-1.9-6.6-11.4-12.3-21-5.6-9.6-12.5-21.3-15.2-26-2.7-4.7-6.8-11.7-9-15.5l-4.2-7.1h-52.2c-28.8 0-52.3.1-52.3.3zM74 742.6c0 .5 5.1 7.3 10.7 14.4 1.8 2.2 29.5 38.1 41.6 53.9 5.6 7.3 10.7 13.8 11.3 14.5.6.6 1.9 2.4 2.9 3.9s2 2.5 2.4 2.2c.3-.4.6-8.4.6-17.8l.1-17.1-8-10.6c-4.4-5.8-8.2-10.7-8.6-11-.3-.3-2.2-2.8-4.2-5.6l-3.7-5 11.2.1c6.2 0 11.7-.1 12.2-.2.6-.2 1-4.6 1-11.1v-10.7l-34.8-.3c-19.1-.1-34.7 0-34.7.4z"/><path d="M1747.6 749.5c-2.5 4.2-4.6 7.8-4.6 8.1 0 .3-.9 1.7-2 3.1-1.1 1.4-1.8 2.8-1.6 3.2.2.3 27.4.6 60.5.5h60.1l-1.6 2.5c-.9 1.4-2.4 3.5-3.4 4.6-.9 1.1-4.1 5.1-7.1 9-10.9 14.2-43.1 56.1-45.4 59-1.3 1.6-3.7 4.8-5.4 7-1.7 2.2-3.4 4.4-3.9 5-.4.5-3.7 4.8-7.2 9.5-3.6 4.6-7 9.1-7.7 10-1.1 1.3-12 15.5-32.9 42.5-3 3.8-12.8 16.6-21.9 28.3-9 11.7-17.3 22.5-18.4 24-1.3 1.8-2.3 2.3-2.9 1.7-1.6-1.8-45.2-58.6-46.5-60.6-.6-1-1.5-1.9-1.8-1.9-.9 0-12.2 18.2-12.2 19.5 0 .5 10.6 14.9 23.7 31.9l23.7 30.9-2.4 2.6c-2.2 2.4-20.4 25.9-41.1 53.1-4.4 5.8-8.3 10.7-8.6 11-.3.3-4.1 5.2-8.5 11s-10.4 13.7-13.5 17.6c-3 3.8-6.6 8.5-8 10.4-1.4 1.8-2.9 3.8-3.5 4.4-.5.6-4.4 5.6-8.5 11.1s-7.7 10.2-8 10.5c-.3.3-2.4 3-4.8 6-2.3 3-4.5 5.9-4.9 6.5-.5.5-2.3 2.9-4.1 5.2l-3.2 4.1.2 18.2.3 18.2 14.5-18.8c8-10.4 17.6-22.9 21.4-27.9 3.9-4.9 8.7-11.3 10.9-14 2.1-2.8 6.4-8.4 9.5-12.5 3.1-4.1 5.9-7.7 6.2-8 .3-.3 8.2-10.4 17.5-22.5s24.7-32.1 34.2-44.5c9.5-12.4 17.8-22.5 18.3-22.5s4.5 4.5 8.7 10.1c4.3 5.6 12.8 16.6 18.9 24.5 6.1 7.9 14.1 18.4 17.9 23.4 3.7 4.9 9.6 12.6 13.1 17 4.8 6.1 68.8 89.3 80.7 104.9 1.2 1.6 6.1 7.9 10.8 14l8.6 11.1-145.9.3-145.8.2v23h168.5c92.7 0 168.5-.2 168.5-.5 0-.7-17.5-23.6-55.5-72.8-16.1-20.9-27.5-35.8-38.9-50.7-4.4-5.8-8.3-10.7-8.6-11-.3-.3-3.4-4.3-7-9-3.5-4.7-8.7-11.4-11.4-15-2.8-3.6-12.8-16.6-22.3-29-18.7-24.3-21-27.3-30.5-39.6-3.5-4.5-7.4-9.6-8.8-11.4-1.4-1.9-3.5-4.6-4.7-6l-2.2-2.7 5.5-7.4c3.1-4.1 6.9-9 8.4-10.9 2.7-3.3 6.7-8.5 10.9-14 3.2-4.2 61.1-79.3 63.6-82.5 1.3-1.7 3.7-4.8 5.4-7 1.7-2.2 3.4-4.5 3.9-5 .4-.6 3.7-4.8 7.2-9.5 3.6-4.7 6.7-8.7 7.1-9 .3-.3 4.3-5.5 8.9-11.5 9.3-12.2 13-17 30-39 6.4-8.3 17.2-22.2 23.9-31 6.8-8.8 12.8-16.6 13.3-17.3.8-.9-14.5-1.2-75.9-1.2h-77l-4.7 7.5zM574 1055.5c-10.1 5.2-18.1 8.8-23.2 10.4-2.5.8-4.5 2.4-6 4.9-1.2 2-2.8 4.3-3.4 5-3 3-2.5 5 3.7 14.6 4.6 7.2 6.5 9.3 7.4 8.6.7-.6 3.9-5.2 7.1-10.3 3.2-5.1 6.2-9.7 6.7-10.2 1-1.3 15.5-23.4 16.8-25.8 1.3-2.4.6-2.1-9.1 2.8zM130.6 1162.2c-6.9 9-12.9 16.7-13.3 17.3-.5.5-2.9 3.7-5.3 7-2.5 3.3-4.8 6.2-5.1 6.5-.3.3-2.1 2.6-4 5.1-2.6 3.6-20.4 26.8-27.2 35.7-.8 1 5.8 1.2 33.4 1l34.4-.3v-22l-11.4-.5-11.4-.5 7.4-9.5c4.1-5.2 9.2-11.9 11.4-14.8l4-5.3v-18c0-9.8-.1-17.9-.2-17.9s-5.8 7.3-12.7 16.2zM1266 1212.8c0 .5 1.7 5.6 3.8 11.3l3.9 10.4 78.1.3 78.2.2v-23h-82c-45.1 0-82 .4-82 .8zM1570 1292.6v19.7l26.7 40.6c14.8 22.3 30.5 46.2 35 53.1l8.3 12.5-64 .3c-35.2.1-92.8.1-127.9 0l-63.9-.3 8.6-11.2c4.8-6.1 14.1-18.2 20.7-26.8 6.6-8.6 13-16.8 14.2-18.3 2.2-2.6 2.3-3.5 2.3-21 0-14.8-.2-18.1-1.3-17-1.3 1.4-19.8 25.3-30.8 39.8-3.5 4.7-6.8 9-7.4 9.6-1.8 2-3.9 4.8-8.4 10.9-2.5 3.3-4.7 6.2-5.1 6.5-.3.3-3.4 4.3-6.9 9-3.5 4.7-6.8 8.9-7.2 9.4-1.1 1.2-1.8.3-21.8-27.9-28.3-39.9-29.5-41.5-29.8-41.1-.3.3 2.7 9.4 4.7 14.1.5 1.1 1.5 4 2.3 6.5.8 2.5 4.3 12.4 7.7 22 9.5 27.1 10.3 29.2 17.9 51 10 28.5 8.4 26.2 12.9 20.1 2-2.7 4-4.7 4.4-4.3.5.5 25.2 35.1 40 56 1.3 1.8 3 4.1 3.8 5.2.8 1 4.2 5.8 7.5 10.6 3.3 4.7 6.7 9.5 7.5 10.5.8 1 3 4 4.8 6.6 1.8 2.6 9 12.8 16 22.5 7 9.8 18.3 25.7 25.2 35.4 6.9 9.7 13.1 18.3 13.8 19 .6.7 1.2 1.5 1.2 1.7 0 .5 42.8 60.7 46 64.7 1.1 1.4 2 2.8 2 3.2 0 .5-21.6.8-48.1.8-45.4 0-48.1.1-47.4 1.7.4 1 2.1 5.8 3.9 10.8l3.2 9 66.2.3c36.4.1 66.2 0 66.2-.4 0-.3-15.9-22.8-35.2-50-19.4-27.2-39.7-55.6-45.1-63.2-5.3-7.5-10.4-14.6-11.2-15.7-.8-1.1-20.2-28.3-43.1-60.5-22.9-32.2-44.5-62.6-48.1-67.5l-6.4-9 148.5-.5 148.6-.5-8.6-13c-12.4-18.9-36-54.8-57.9-88-10.5-16-24.7-37.4-31.4-47.8-6.8-10.3-12.5-18.7-12.7-18.7-.2 0-.4 8.8-.4 19.6z"/></svg>