<?xml version="1.0" standalone="no"?>
<!DOCTYPE svg PUBLIC "-//W3C//DTD SVG 20010904//EN"
 "http://www.w3.org/TR/2001/REC-SVG-20010904/DTD/svg10.dtd">
<svg version="1.0" xmlns="http://www.w3.org/2000/svg"
 width="1021.000000pt" height="1021.000000pt" viewBox="0 0 1021.000000 1021.000000"
 preserveAspectRatio="xMidYMid meet">
<metadata>
Created by potrace 1.11, written by Peter Selinger 2001-2013
</metadata>
<g transform="translate(0.000000,1021.000000) scale(0.100000,-0.100000)"
fill="#000000" stroke="none">
<path d="M4820 10193 c-590 -40 -1083 -148 -1595 -350 -1599 -630 -2784 -2048
-3124 -3738 -69 -343 -95 -618 -95 -1000 0 -296 10 -448 45 -705 118 -855 448
-1659 969 -2355 277 -370 649 -743 1025 -1025 1129 -849 2574 -1189 3972 -935
1268 230 2407 940 3181 1983 488 657 804 1406 937 2223 180 1112 -24 2292
-565 3266 -917 1649 -2630 2656 -4495 2641 -115 -1 -230 -3 -255 -5z m830
-182 c908 -108 1748 -450 2460 -1000 1100 -851 1791 -2130 1900 -3515 13 -166
13 -626 0 -781 -92 -1072 -512 -2064 -1216 -2865 -124 -142 -393 -404 -534
-521 -677 -563 -1466 -931 -2315 -1079 -452 -79 -1024 -92 -1475 -34 -456 58
-876 173 -1355 371 -108 45 -477 240 -610 322 -1166 720 -1981 1891 -2250
3231 -106 533 -124 1110 -49 1645 261 1877 1566 3434 3370 4018 321 104 670
178 1001 212 225 22 235 23 578 20 247 -3 360 -8 495 -24z"/>
<path d="M4820 9953 c-903 -62 -1696 -327 -2415 -806 -284 -190 -493 -363
-750 -621 -391 -392 -672 -785 -915 -1281 -158 -320 -259 -593 -345 -930 -254
-990 -188 -2037 189 -3000 62 -156 245 -528 334 -677 138 -231 279 -430 456
-643 121 -146 454 -480 591 -594 819 -680 1758 -1058 2810 -1132 232 -16 637
-6 869 21 579 68 1090 220 1611 480 637 318 1175 751 1619 1304 559 696 899
1486 1026 2386 55 387 53 943 -5 1338 -203 1376 -962 2577 -2117 3350 -702
470 -1506 742 -2366 801 -139 10 -478 12 -592 4z m711 -692 l414 -540 1031 -3
1032 -3 -469 -655 c-258 -360 -469 -658 -469 -662 0 -5 333 -9 740 -10 l739
-3 -344 -523 c-190 -288 -345 -525 -345 -528 0 -2 52 -4 116 -4 l116 0 -31
-52 -30 -53 -75 -3 c-68 -3 -91 -11 -68 -26 4 -2 22 -24 39 -48 l32 -44 -30
-53 -30 -52 -71 92 -71 91 -131 -201 c-72 -110 -134 -201 -137 -201 -4 0 -19
24 -34 53 l-28 52 107 162 c58 89 106 164 106 167 0 3 -93 6 -207 6 l-208 0
-27 50 c-16 28 -28 52 -28 55 0 3 104 5 231 5 203 0 230 2 225 15 -9 24 -670
884 -678 882 -4 -1 -42 -51 -85 -112 -44 -60 -83 -109 -87 -108 -5 1 -21 23
-37 50 l-27 48 58 80 c33 44 59 83 60 88 0 4 -270 7 -600 7 -330 0 -600 -2
-600 -4 0 -4 566 -865 574 -873 2 -3 18 16 36 41 17 25 34 46 38 46 4 0 20
-22 35 -47 26 -42 27 -49 16 -72 -8 -14 -15 -29 -17 -33 -2 -5 12 -8 32 -8 31
0 39 -5 61 -41 44 -69 44 -69 -19 -69 -31 0 -56 -2 -56 -5 0 -3 95 -151 212
-328 116 -177 263 -401 326 -497 l115 -174 22 28 22 28 31 -53 c27 -48 29 -55
16 -73 -8 -11 -14 -26 -14 -33 0 -7 52 -92 115 -188 l115 -176 0 -102 0 -102
-153 232 -152 231 -87 -131 c-48 -73 -176 -268 -286 -435 l-199 -303 -21 59
c-12 33 -22 64 -22 70 0 6 122 195 270 421 149 226 270 415 270 421 0 9 -679
1050 -700 1073 -4 5 -83 -96 -175 -225 -91 -128 -170 -234 -175 -236 -4 -2
-17 25 -29 59 l-21 62 135 189 134 188 -200 0 -200 0 -13 33 c-8 17 -17 42
-20 54 l-7 23 236 2 236 3 -309 470 -310 470 -95 3 -95 3 -16 46 c-9 26 -16
50 -16 55 0 4 32 8 70 8 39 0 70 2 70 4 0 3 -74 118 -165 256 -102 156 -171
272 -181 305 -17 52 -17 53 6 90 18 30 25 34 35 23 6 -7 110 -163 230 -345
l218 -333 633 0 c349 0 634 3 633 8 0 4 -208 277 -463 607 l-462 600 -794 3
-794 2 -24 -30 c-22 -28 -27 -30 -94 -30 l-70 0 16 25 c9 13 16 27 16 30 0 3
-389 5 -865 5 -476 0 -865 -3 -864 -7 1 -14 824 -1156 833 -1157 5 -1 115 137
245 305 260 338 241 323 271 222 l13 -41 -202 -263 c-111 -144 -199 -264 -197
-266 4 -5 323 -13 487 -13 l105 0 17 -47 c9 -27 17 -51 17 -55 0 -5 -144 -8
-321 -8 -176 0 -319 -4 -317 -8 6 -16 613 -861 618 -862 3 0 52 72 110 160
l105 159 18 -42 c36 -83 36 -84 -52 -215 -45 -67 -81 -126 -81 -131 0 -6 52
-12 132 -13 l131 -3 18 -52 18 -53 -130 0 c-71 0 -129 -3 -129 -6 0 -3 117
-169 260 -368 l260 -363 86 -245 86 -245 -352 -494 c-194 -271 -355 -499 -357
-506 -4 -10 105 -13 533 -15 l537 -3 18 -52 18 -53 -560 0 c-364 0 -559 -3
-557 -10 2 -5 136 -212 298 -459 l295 -450 402 -1 c399 0 402 0 414 21 14 27
22 18 48 -61 18 -53 19 -65 7 -72 -7 -4 -116 -163 -242 -353 l-228 -346 -230
350 -231 351 -643 0 c-536 0 -642 -2 -635 -13 4 -8 217 -285 472 -615 l464
-602 796 0 796 1 40 54 c22 30 43 54 46 55 7 0 79 -193 79 -211 0 -5 -24 -9
-53 -9 l-54 0 -424 -550 c-233 -302 -427 -550 -430 -550 -4 0 -197 247 -430
550 l-424 550 -1017 0 c-615 0 -1018 4 -1018 9 0 5 211 306 469 668 l470 658
-745 5 -746 5 336 510 335 510 -380 3 -380 2 3 58 3 57 372 5 372 5 -230 297
c-126 164 -229 300 -229 303 0 3 31 5 69 5 l68 0 179 -233 c99 -127 224 -304
279 -392 54 -88 178 -289 276 -447 98 -159 176 -288 174 -288 -2 0 -106 133
-231 295 -126 162 -231 292 -235 288 -11 -13 -569 -864 -569 -869 0 -2 282 -4
626 -4 414 0 623 3 619 10 -4 6 43 10 135 10 92 0 139 -4 135 -10 -4 -7 195
-10 591 -10 l596 0 -15 23 c-8 12 -133 202 -277 422 -145 220 -268 405 -274
412 -8 9 -50 -43 -171 -213 -88 -123 -162 -224 -165 -224 -3 0 -19 23 -37 50
l-32 49 139 196 c77 107 140 198 140 200 0 3 -121 5 -269 5 l-268 0 -37 55
c-20 30 -36 57 -36 59 0 2 140 3 310 1 289 -4 310 -3 301 13 -5 9 -144 222
-310 472 l-300 455 41 42 41 41 321 -488 c298 -454 322 -487 337 -472 9 9 185
254 391 543 l375 526 -235 329 c-129 181 -304 425 -388 541 l-152 213 -156
-238 c-174 -265 -166 -261 -148 -77 7 66 12 77 94 203 l87 132 -103 0 -103 0
-11 53 c-5 28 -9 54 -6 56 2 2 57 3 124 2 66 0 120 2 120 6 0 10 -633 893
-641 893 -3 0 -39 -43 -79 -95 -40 -52 -74 -95 -77 -95 -2 0 -26 11 -54 25
l-50 26 64 82 c35 45 67 88 71 95 6 9 -124 12 -634 12 -638 0 -641 0 -630 -20
10 -19 8 -20 -54 -20 l-65 0 -51 75 c-27 41 -50 77 -50 79 0 3 335 7 745 8
l746 3 -469 655 -469 655 1028 5 1028 5 422 548 c316 411 424 545 433 537 7
-5 199 -253 427 -549z m-1148 -948 l35 -98 205 -3 205 -2 15 -43 c8 -23 551
-1561 1207 -3417 656 -1856 1195 -3383 1197 -3393 5 -16 -12 -17 -288 -15
l-293 3 -32 90 c-18 50 -33 95 -33 102 -1 8 25 13 82 15 l84 3 -1175 3328
-1176 3327 -83 0 c-46 0 -83 -4 -83 -8 0 -5 527 -1499 1170 -3321 644 -1822
1170 -3320 1170 -3327 0 -12 -34 -14 -202 -12 l-202 3 -1171 3315 c-644 1823
-1189 3368 -1212 3433 l-42 117 294 0 293 0 35 -97z m-1800 -1216 c148 -30
257 -65 372 -122 420 -206 635 -593 612 -1100 -26 -558 -331 -952 -846 -1091
-53 -15 -97 -27 -99 -29 -1 -1 238 -374 533 -828 294 -454 535 -828 535 -832
0 -3 -127 -4 -282 -3 l-281 3 -501 810 -501 810 -338 3 -337 2 0 -815 0 -815
-235 0 -235 0 0 2015 0 2016 758 -4 c671 -2 767 -5 845 -20z m4505 -872 c360
-615 529 -895 540 -895 12 0 182 282 541 895 l523 895 275 0 c207 0 272 -3
267 -12 -4 -6 -313 -513 -686 -1126 l-678 -1114 0 -889 0 -889 -230 0 -230 0
0 888 0 888 -666 1094 c-366 602 -675 1110 -686 1128 l-20 32 264 0 263 0 523
-895z m-6230 53 l3 -57 -60 -3 -60 -3 60 -77 60 -77 -3 -92 -3 -91 -170 221
c-93 122 -172 226 -173 231 -3 7 55 10 170 8 l173 -3 3 -57z m8780 10 c-19
-24 -231 -298 -472 -610 -284 -370 -435 -572 -429 -580 8 -14 815 -1063 895
-1165 l50 -63 -846 0 -846 0 0 55 0 55 725 0 c399 0 725 3 725 8 0 7 -749 984
-774 1010 -11 11 -71 -61 -342 -413 l-329 -426 -3 90 -3 91 296 382 c162 211
295 385 295 388 0 3 -52 72 -115 154 -63 81 -115 152 -115 157 0 5 13 30 29
55 l28 46 108 -138 c59 -77 114 -149 123 -161 17 -21 24 -12 408 485 l390 507
-299 3 c-331 3 -310 -3 -262 71 l25 41 386 0 386 0 -34 -42z m-6589 -1520 c-7
-13 -43 -70 -82 -127 l-69 -104 -33 53 -33 53 22 33 c14 23 38 40 76 54 30 12
71 30 90 40 44 24 43 24 29 -2z m-2189 -546 l0 -89 -55 -71 -56 -71 53 -3 53
-3 3 -57 3 -58 -171 0 c-93 0 -170 2 -170 5 0 8 330 435 336 435 2 0 4 -40 4
-88z m6430 -297 l0 -55 -391 0 -390 0 -13 33 c-8 17 -17 42 -20 55 l-7 22 410
0 411 0 0 -55z m989 -677 c143 -219 261 -400 261 -403 0 -3 -333 -6 -739 -7
l-740 -3 469 -657 c258 -362 471 -662 475 -668 4 -7 -101 -10 -328 -10 l-335
0 -16 47 c-9 26 -16 50 -16 55 0 4 106 8 235 8 129 0 235 3 235 8 0 7 -812
1148 -830 1166 -6 6 -16 1 -29 -15 -11 -13 -20 -21 -21 -18 0 4 -45 134 -100
289 -55 156 -98 285 -96 287 2 2 57 -71 121 -162 65 -91 121 -165 125 -165 3
0 77 92 164 205 87 113 162 208 167 211 5 3 9 -33 9 -83 l0 -88 -110 -142
c-61 -78 -110 -145 -110 -148 0 -3 286 -5 635 -5 l634 0 -174 265 -175 265 0
102 c0 90 2 100 14 83 7 -11 131 -199 275 -417z"/>
<path d="M4744 9181 l-350 -456 353 -3 c195 -1 512 -1 704 0 l350 3 -341 445
c-188 245 -347 450 -353 456 -9 9 -98 -101 -363 -445z"/>
<path d="M6040 8605 c0 -6 865 -1132 889 -1157 15 -17 41 17 431 563 228 319
417 585 418 590 2 5 -344 9 -867 9 -479 0 -871 -2 -871 -5z"/>
<path d="M7092 7235 c113 -153 654 -854 658 -854 5 0 581 872 588 891 2 4
-285 8 -638 8 l-642 0 34 -45z"/>
<path d="M4783 2826 c6 -16 294 -456 307 -470 7 -7 252 351 324 472 6 9 -60
12 -314 12 -271 0 -321 -2 -317 -14z"/>
<path d="M2834 2202 c-227 -317 -411 -578 -410 -579 4 -4 1716 -12 1716 -7 0
3 -134 179 -298 392 -165 213 -363 470 -441 572 -79 102 -146 188 -150 192 -3
4 -191 -252 -417 -570z"/>
<path d="M4427 1438 c26 -35 186 -242 355 -461 l307 -397 350 454 c193 250
351 457 351 460 0 4 -318 6 -706 6 l-705 0 48 -62z"/>
<path d="M1450 5921 l0 -781 468 0 c417 0 477 2 557 19 243 50 420 181 519
383 64 129 77 188 83 358 4 125 2 157 -16 235 -64 268 -237 442 -528 532 l-88
27 -497 4 -498 3 0 -780z m923 560 c65 -98 70 -104 84 -85 58 80 105 134 115
134 7 -1 32 -11 55 -23 l42 -22 -55 -72 -55 -73 139 0 c155 0 151 2 191 -77
l21 -43 -181 -2 -180 -3 185 -282 186 -283 -27 -55 c-15 -30 -30 -55 -33 -55
-3 0 -99 145 -214 321 -115 176 -213 316 -216 312 -4 -4 -166 -214 -359 -465
l-352 -458 -70 0 c-38 0 -69 2 -69 4 0 2 166 219 369 482 l368 479 -379 3
-379 2 3 58 3 57 382 3 383 2 -73 113 c-40 61 -77 118 -81 125 -6 10 7 12 60
10 l68 -3 69 -104z"/>
</g>
</svg>
